<svg id="Warstwa_1" data-name="Warstwa 1" xmlns="http://www.w3.org/2000/svg" viewBox="0 0 514.95 102.34"><defs><style>.cls-1,.cls-3{fill:#3f5364;}.cls-1,.cls-2{fill-rule:evenodd;}.cls-2{fill:#f6303e;}</style></defs><title>logo</title><path class="cls-1" d="M49.43,69A17.41,17.41,0,0,1,33.29,52.83H0l13.73,3.64a37.27,37.27,0,0,0,35.7,32.35V69" transform="translate(0 0)"/><path class="cls-2" d="M33.29,49.42A17.43,17.43,0,0,1,49.43,33.28V0L45.66,13.75A37.26,37.26,0,0,0,13.44,49.42H33.29" transform="translate(0 0)"/><path class="cls-1" d="M69.29,49.51A17.43,17.43,0,0,0,53.14,33.37V13.52a37.27,37.27,0,0,1,35.7,32.35l13.73,3.64H69.29" transform="translate(0 0)"/><path class="cls-1" d="M89.13,52.92A37.26,37.26,0,0,1,56.91,88.59l-3.77,13.75V69.06A17.42,17.42,0,0,0,69.28,52.92H89.13" transform="translate(0 0)"/><path class="cls-3" d="M156.37,59.21,138.43,31.1h-9.74V71.18h8.73V53.09c0-4.25-.18-9.14-.18-9.19l0-1,18.35,28.33h9.33V31.1h-8.73V49.25c0,4.25.17,8.84.17,8.89l.05,1.07" transform="translate(0 0)"/><path class="cls-3" d="M187.7,31,172.6,71.18h9.27L184.76,63h14.91l2.89,8.19h9.74L197.2,31h-9.5m-1,25.1,5.47-15.79,5.48,15.79Z" transform="translate(0 0)"/><polyline class="cls-3" points="210.9 31.1 225.77 71.18 234.44 71.18 249.31 31.1 239.86 31.1 230.16 59.7 220.41 31.1 210.9 31.1"/><rect class="cls-3" x="256.73" y="31.1" width="8.97" height="40.08"/><path class="cls-3" d="M305.11,61.66l-.06.08c-.08.11-2.05,2.71-8.72,2.71-7.22,0-12.07-5.35-12.07-13.31s4.78-13.32,11.9-13.32a13.63,13.63,0,0,1,10.45,4.55l5.87-5.1c-1.54-1.71-6.16-6.76-16.32-6.76s-21,6.46-21,20.63S286,71.83,296,71.83c10.34,0,15.14-4.38,17.44-6.47l.36-.32V48.6H296.57v6.67h8.54v6.39" transform="translate(0 0)"/><path class="cls-3" d="M335.89,31l-15.1,40.14h9.28L333,63h14.91l2.89,8.19h9.75L345.39,31h-9.5m-1,25.1,5.48-15.79,5.48,15.79Z" transform="translate(0 0)"/><polyline class="cls-3" points="372.87 71.18 381.84 71.18 381.84 38.06 392.32 38.06 392.32 31.1 362.38 31.1 362.38 38.06 372.87 38.06 372.87 71.18"/><path class="cls-3" d="M397.15,51.2c0,12.37,8.55,20.69,21.28,20.69S439.7,63.57,439.7,51.2,431,30.45,418.43,30.45,397.15,39,397.15,51.2M430.62,51c0,7.66-5,13-12.19,13s-12.2-5.35-12.2-13,5-13,12.2-13S430.62,43.33,430.62,51Z" transform="translate(0 0)"/><path class="cls-3" d="M470.66,54.4c2.33-.73,7.75-3.31,7.75-11.39a10.93,10.93,0,0,0-4.36-9.08C471.46,32,468,31.1,463.5,31.1H449.18V71.18h9V55.62h3.47l.09.15,8.46,15.41h10.38L470.3,54.51l.36-.11m-3.46-6.68c-1.29,1-3,1.18-5.06,1.18h-4.05v-11h4.05c2.21,0,3.83.19,5.07,1.12a4.9,4.9,0,0,1,2.18,4.36A4.82,4.82,0,0,1,467.2,47.72Z" transform="translate(0 0)"/><path class="cls-3" d="M511.85,51.46a15.36,15.36,0,0,0-5.55-3.23c-.65-.26-1.71-.66-2.83-1.07s-2.35-.87-3.25-1.23c-1.71-.66-4.31-1.67-4.31-4.39,0-2.47,2.09-3.95,5.6-3.95a14.18,14.18,0,0,1,9,3.95l3.76-6.15c-2.85-2.73-8.19-4.76-12.54-4.76s-8.12,1.12-10.54,3.17a11.17,11.17,0,0,0-4.13,8.68,9.84,9.84,0,0,0,3.09,7.62,13.76,13.76,0,0,0,4.26,2.67l.49.23c1,.42,2.85,1.09,4.51,1.69l1.66.6.08,0C503,56,506,57.11,506,60c0,2.71-2.24,4.47-5.71,4.47-3.27,0-7.65-2.07-10.57-5L485.39,66c2.09,1.9,7.29,5.89,14.06,5.89,4.44,0,8.09-1.11,10.83-3.3h0a12,12,0,0,0,4.66-9.5,10.42,10.42,0,0,0-3.1-7.63" transform="translate(0 0)"/></svg>