<svg id="Capa_1" data-name="Capa 1" xmlns="http://www.w3.org/2000/svg" viewBox="0 0 591.85 600"><defs><style>.cls-1{fill:#839baa;}.cls-2{fill:#f6303e;}</style></defs><title>chat</title><path class="cls-1" d="M645.31,188.55C616.22,78.41,515.44,0,400,0,285.28,0,184.62,78.38,155,188.49a62.44,62.44,0,0,0-50.93,61.29V320a62.43,62.43,0,0,0,42.22,59v29.37c0,88.19,71.76,159.94,160,159.94h19.68A51.86,51.86,0,0,0,373.65,600h52.68a51.78,51.78,0,0,0,0-103.55H373.65A51.84,51.84,0,0,0,326,528.12H306.26A119.88,119.88,0,0,1,186.51,408.38V362.23a20.1,20.1,0,0,0-20.1-20.1A22.16,22.16,0,0,1,144.28,320V249.78a22.14,22.14,0,0,1,22-22.13l4.74,0h.1a20.09,20.09,0,0,0,19.69-16.07C211.17,112.29,299.14,40.21,400,40.21c101.52,0,189.57,72,209.36,171.27a20.09,20.09,0,0,0,19.71,16.17h4.51a22.15,22.15,0,0,1,22.13,22.12V320a22.16,22.16,0,0,1-22.13,22.12,20.1,20.1,0,0,0,0,40.2A62.4,62.4,0,0,0,695.92,320V249.78A62.44,62.44,0,0,0,645.31,188.55ZM373.65,536.66h52.68a11.57,11.57,0,0,1,0,23.13H373.65a11.57,11.57,0,0,1,0-23.13Z" transform="translate(-104.08)"/><path class="cls-2" d="M400,96.6c-103.82,0-188.28,84.46-188.28,188.27S296.17,473.17,400,473.17s188.29-84.47,188.29-188.3S503.81,96.6,400,96.6ZM400,433c-81.65,0-148.08-66.43-148.08-148.09S318.34,136.81,400,136.81s148.08,66.42,148.08,148.06S481.64,433,400,433Z" transform="translate(-104.08)"/></svg>