<?xml version="1.0" encoding="UTF-8"?>
<!DOCTYPE svg PUBLIC "-//W3C//DTD SVG 1.1//EN" "http://www.w3.org/Graphics/SVG/1.1/DTD/svg11.dtd">
<!-- Creator: CorelDRAW X8 -->
<svg xmlns="http://www.w3.org/2000/svg" xml:space="preserve" width="8.5in" height="11in" version="1.1" style="shape-rendering:geometricPrecision; text-rendering:geometricPrecision; image-rendering:optimizeQuality; fill-rule:evenodd; clip-rule:evenodd"
viewBox="0 0 8500 11000"
 xmlns:xlink="http://www.w3.org/1999/xlink">
 <defs>
  <style type="text/css">
   <![CDATA[
    .fil0 {fill:#F6303E;fill-rule:nonzero}
   ]]>
  </style>
 </defs>
 <g id="Capa_x0020_1">
  <metadata id="CorelCorpID_0Corel-Layer"/>
  <g id="_277929472">
   <path class="fil0" d="M5260 5500l3031 -3031c279,-279 279,-731 0,-1010 -279,-279 -731,-279 -1010,0l-3031 3031 -3031 -3031c-279,-279 -731,-279 -1010,0 -279,279 -279,731 0,1010l3031 3031 -3031 3031c-279,279 -279,731 0,1010 279,279 731,279 1010,0l3031 -3031 3031 3031c279,279 731,279 1010,0 279,-279 279,-731 0,-1010l-3031 -3031z"/>
  </g>
 </g>
</svg>
