<?xml version="1.0" encoding="UTF-8"?>
<!DOCTYPE svg PUBLIC "-//W3C//DTD SVG 1.1//EN" "http://www.w3.org/Graphics/SVG/1.1/DTD/svg11.dtd">
<!-- Creator: CorelDRAW X8 -->
<svg xmlns="http://www.w3.org/2000/svg" xml:space="preserve" width="8.5in" height="8.5in" version="1.1" style="shape-rendering:geometricPrecision; text-rendering:geometricPrecision; image-rendering:optimizeQuality; fill-rule:evenodd; clip-rule:evenodd"
viewBox="0 0 8500 8500"
 xmlns:xlink="http://www.w3.org/1999/xlink">
 <defs>
  <style type="text/css">
   <![CDATA[
    .fil0 {fill:#C2CAD1;fill-rule:nonzero}
   ]]>
  </style>
 </defs>
 <g id="Capa_x0020_1">
  <metadata id="CorelCorpID_0Corel-Layer"/>
  <path class="fil0" d="M3855 2496l-1 1c-71,-66 -164,-106 -268,-106 -220,0 -398,178 -398,398 0,116 50,220 129,293l0 1 1273 1167 -1273 1167 0 1c-79,73 -130,177 -130,293 0,220 179,398 399,398 104,0 197,-40 268,-105l1 1 1594 -1461c82,-76 129,-182 129,-294 0,-112 -47,-218 -129,-294l-1594 -1460z"/>
 </g>
</svg>
