<svg id="Capa_1" data-name="Capa 1" xmlns="http://www.w3.org/2000/svg" viewBox="0 0 612 601.01"><defs><style>.cls-1{fill:#9fa9b1;}</style></defs><title>gplus_icon</title><path class="cls-1" d="M32.47,245.36c0,51,17,87.82,50.62,109.46,27.49,17.72,59.42,20.36,76,20.36,4,0,7.25-.15,9.51-.3,0,0-5.26,34.26,20.14,68.17l-1.15,0c-44,0-187.6,9.21-187.6,127.25,0,120.1,131.87,126.19,158.33,126.19,2.07,0,3.27,0,3.27,0,.3,0,2.19.08,5.41.08,17,0,60.86-2.13,101.61-21.94,52.87-25.68,79.69-70.3,79.69-132.67,0-60.27-40.85-96.14-70.68-122.36-18.21-16-33.94-29.77-33.94-43.18,0-13.66,11.49-23.94,26-36.95,23.53-21,45.7-51,45.7-107.6,0-49.77-6.45-83.17-46.21-104.36,4.15-2.13,18.8-3.67,26.05-4.67,21.55-3,53.07-6.29,53.07-23.88V95.5h-157C189.69,95.54,32.47,101.36,32.47,245.36ZM286,553.13c3,48-38.09,83.48-99.77,88C123.55,645.67,72,617.46,69,569.5c-1.46-23,8.68-45.65,28.52-63.63,20.12-18.23,47.75-29.46,77.81-31.68,3.55-.23,7.07-.37,10.58-.37C243.85,473.82,283.12,507.89,286,553.13ZM245,212.5c15.41,54.18-7.85,110.84-44.93,121.29a48.69,48.69,0,0,1-13.12,1.8c-34,0-67.62-34.36-80.08-81.68-7-26.59-6.41-49.83,1.58-72.17,7.86-22,22-36.84,39.71-41.83a48.23,48.23,0,0,1,13.14-1.82C202.27,138.08,228.64,155.09,245,212.5Zm264.59,118V228.06H444.67V330.51H342.23v64.88H444.67V497.83h64.88V395.39H612V330.51Z" transform="translate(0 -95.5)"/></svg>