<svg id="Capa_1" data-name="Capa 1" xmlns="http://www.w3.org/2000/svg" viewBox="0 0 612 584.79"><title>lin_icon</title><path id="LinkedIn" d="M612,462.19V688.4H480.78V477.23c0-53.09-18.92-89.17-66.41-89.17-36.31,0-57.73,24.43-67.29,47.94-3.44,8.46-4.49,20.32-4.49,32V688.37H211.5s1.76-357.51,0-394.54H342.62v55.92c-.18.46-.56.85-.74,1.36h.74v-1.36c17.52-26.87,48.55-65.17,118.24-65.17C547.36,284.58,612,341,612,462.19ZM74.23,103.6C29.38,103.6,0,133,0,171.84,0,209.61,28.51,240,72.55,240h.79c45.85,0,74.25-30.42,74.25-68.19C146.7,133,119.19,103.6,74.23,103.6ZM7.83,688.39H139V293.81H7.83Z" transform="translate(0 -103.6)" fill="#9fa9b1"/></svg>