<?xml version="1.0" encoding="UTF-8"?>
<!DOCTYPE svg PUBLIC "-//W3C//DTD SVG 1.1//EN" "http://www.w3.org/Graphics/SVG/1.1/DTD/svg11.dtd">
<!-- Creator: CorelDRAW X8 -->
<svg xmlns="http://www.w3.org/2000/svg" xml:space="preserve" width="11.1111in" height="8.33333in" version="1.1" style="shape-rendering:geometricPrecision; text-rendering:geometricPrecision; image-rendering:optimizeQuality; fill-rule:evenodd; clip-rule:evenodd"
viewBox="0 0 11111 8333"
 xmlns:xlink="http://www.w3.org/1999/xlink">
 <defs>
  <style type="text/css">
   <![CDATA[
    .fil0 {fill:#98A4AE;fill-rule:nonzero}
   ]]>
  </style>
 </defs>
 <g id="Capa_x0020_1">
  <metadata id="CorelCorpID_0Corel-Layer"/>
  <g id="_265117664">
   <path class="fil0" d="M8796 1157l-6481 0c-511,0 -926,415 -926,926l0 4167c0,511 415,926 926,926l6481 0c511,0 926,-415 926,-926l0 -4167c0,-511 -415,-926 -926,-926zm-4483 3387l0 0 742 649c141,123 320,184 501,184 181,0 359,-62 500,-184l742 -649 -17 18 1688 1688 -5827 0 1688 -1688 -17 -18zm-1998 1379l0 0 0 -3127 1667 1459 -1667 1668zm4814 -1668l0 0 1667 -1459 0 3125 -1667 -1666zm1667 -2172l0 0 0 98 -3044 2663c-105,92 -288,92 -393,0l-3044 -2663 0 -98 6481 0z"/>
  </g>
 </g>
</svg>
