<?xml version="1.0" encoding="UTF-8"?>
<!DOCTYPE svg PUBLIC "-//W3C//DTD SVG 1.1//EN" "http://www.w3.org/Graphics/SVG/1.1/DTD/svg11.dtd">
<!-- Creator: CorelDRAW X8 -->
<svg xmlns="http://www.w3.org/2000/svg" xml:space="preserve" width="11.1111in" height="8.33333in" version="1.1" style="shape-rendering:geometricPrecision; text-rendering:geometricPrecision; image-rendering:optimizeQuality; fill-rule:evenodd; clip-rule:evenodd"
viewBox="0 0 11111 8333"
 xmlns:xlink="http://www.w3.org/1999/xlink">
 <defs>
  <style type="text/css">
   <![CDATA[
    .fil0 {fill:#3F5264;fill-rule:nonzero}
   ]]>
  </style>
 </defs>
 <g id="__x0023_Layer_x0020_1">
  <metadata id="CorelCorpID_0Corel-Layer"/>
  <g id="_258368056">
   <g>
    <path class="fil0" d="M9021 3493c-186,0 -337,151 -337,337l0 339c0,884 -345,1715 -971,2340 -625,625 -1456,969 -2340,969 0,0 -1,0 -2,0 -1825,-1 -3310,-1488 -3309,-3313 1,-885 346,-1716 971,-2341 626,-624 1456,-968 2340,-968 1,0 1,0 2,0 467,0 920,96 1346,286 170,76 369,0 444,-170 76,-170 0,-369 -170,-445 -513,-228 -1058,-344 -1620,-345 0,0 -1,0 -2,0 -1063,0 -2063,414 -2816,1166 -752,752 -1167,1752 -1168,2816 -1,1065 413,2065 1165,2818 752,753 1753,1168 2817,1169 1,0 1,0 2,0 1064,0 2063,-414 2816,-1165 753,-753 1168,-1753 1168,-2817l0 -339c0,-186 -150,-337 -336,-337z"/>
   </g>
  </g>
 </g>
</svg>
