<svg id="Capa_1" data-name="Capa 1" xmlns="http://www.w3.org/2000/svg" viewBox="0 0 583.27 600"><defs><style>.cls-1{fill:#f6303e;}.cls-2{fill:#839baa;}</style></defs><title>phone</title><path class="cls-1" d="M613,78.6A266.58,266.58,0,0,0,423.27,0a21.27,21.27,0,1,0,0,42.53A225.83,225.83,0,0,1,649.11,268.37a21.27,21.27,0,1,0,42.53,0A266.57,266.57,0,0,0,613,78.6Z" transform="translate(-108.36 0)"/><path class="cls-1" d="M525.56,268.37a21.27,21.27,0,1,0,42.53,0c0-79.84-65-144.8-144.82-144.82h0a21.27,21.27,0,1,0,0,42.53A102.43,102.43,0,0,1,525.56,268.37Z" transform="translate(-108.36 0)"/><path class="cls-2" d="M478.51,376.79c-32.42-1.67-48.93,22.43-56.85,34a21.27,21.27,0,1,0,35.11,24c9.35-13.68,13.59-15.83,19.34-15.56,18.4,2.17,90.89,55.28,98.15,71.89,1.82,4.89,1.75,9.69-.21,15.52-7.6,22.58-20.2,38.46-36.43,45.89C522.2,559.62,503.3,559,483,550.71c-75.92-31-142.25-74.13-197.14-128.36l-.07-.06c-54.11-54.84-97.22-121.08-128.11-196.88-8.27-20.35-8.91-39.26-1.85-54.67,7.44-16.23,23.32-28.83,45.88-36.43,5.85-2,10.64-2,15.48-.22,16.67,7.28,69.79,79.76,71.93,98,.31,6-1.86,10.2-15.53,19.54a21.26,21.26,0,1,0,24,35.11c11.58-7.91,35.68-24.37,34-56.9-1.84-34-67.93-123.93-99.5-135.54C218,89,203.24,88.93,188.13,94c-34,11.45-58.53,31.85-71,59-12.08,26.35-11.7,56.92,1.11,88.42,33.07,81.13,79.32,152.11,137.49,211l.43.43C315,510.91,385.91,557.08,466.93,590.1c16.22,6.6,32.2,9.9,47.48,9.9a97.56,97.56,0,0,0,40.93-8.78c27.17-12.45,47.57-37,59-71,5-15.08,5-29.84-.22-43.82C602.5,444.73,512.53,378.64,478.51,376.79Z" transform="translate(-108.36 0)"/></svg>