<?xml version="1.0" encoding="UTF-8"?>
<!DOCTYPE svg PUBLIC "-//W3C//DTD SVG 1.1//EN" "http://www.w3.org/Graphics/SVG/1.1/DTD/svg11.dtd">
<!-- Creator: CorelDRAW X8 -->
<svg xmlns="http://www.w3.org/2000/svg" xml:space="preserve" width="8.5in" height="11in" version="1.1" style="shape-rendering:geometricPrecision; text-rendering:geometricPrecision; image-rendering:optimizeQuality; fill-rule:evenodd; clip-rule:evenodd"
viewBox="0 0 8500 11000"
 xmlns:xlink="http://www.w3.org/1999/xlink">
 <defs>
  <style type="text/css">
   <![CDATA[
    .fil0 {fill:#C2CAD1;fill-rule:nonzero}
   ]]>
  </style>
 </defs>
 <g id="Capa_x0020_1">
  <metadata id="CorelCorpID_0Corel-Layer"/>
  <g id="_284870320">
   <path class="fil0" d="M8292 8537l-1847 -1846c-9,-10 -21,-17 -31,-26 363,-551 575,-1211 575,-1920 0,-1930 -1564,-3495 -3494,-3495 -1930,0 -3495,1565 -3495,3495 0,1930 1565,3494 3495,3494 709,0 1369,-212 1920,-575 9,10 16,22 26,31l1846 1847c278,277 728,277 1005,0 277,-277 277,-727 0,-1005zm-4797 -1509l0 0c-1261,0 -2284,-1022 -2284,-2283 0,-1261 1023,-2284 2284,-2284 1261,0 2283,1023 2283,2284 0,1261 -1022,2283 -2283,2283z"/>
  </g>
 </g>
</svg>
