<svg id="Capa_1" data-name="Capa 1" xmlns="http://www.w3.org/2000/svg" viewBox="0 0 612 612"><title>search</title><g id="Search" class="search_svg"><path d="M597,614.69l-132.95-133c-.71-.7-1.54-1.2-2.28-1.86a250.35,250.35,0,0,0,41.43-138.27C503.22,202.65,390.57,90,251.61,90S0,202.65,0,341.61,112.65,593.22,251.61,593.22a250.35,250.35,0,0,0,138.27-41.43c.66.74,1.15,1.57,1.86,2.27l133,133A51.15,51.15,0,0,0,597,614.69ZM251.61,506A164.39,164.39,0,1,1,416,341.61,164.39,164.39,0,0,1,251.61,506Z" transform="translate(0 -90)" fill="#f6303e"/></g></svg>