<svg id="Capa_1" data-name="Capa 1" xmlns="http://www.w3.org/2000/svg" viewBox="0 0 600 550.22"><defs><style>.cls-1{fill:#839baa;}.cls-2{fill:#f6303e;}</style></defs><title>text</title><path class="cls-1" d="M681,24.89H119a19,19,0,0,0-19,19V433.34a19,19,0,0,0,19,19H259.46a19,19,0,1,0,0-38H138V62.87H662V414.35H436.57a18.91,18.91,0,0,0-10.81,3.39L248.64,540.52a19,19,0,0,0,21.64,31.21l172.23-119.4H681a19,19,0,0,0,19-19V43.88A19,19,0,0,0,681,24.89Z" transform="translate(-100 -24.89)"/><path class="cls-2" d="M470.26,175.81a19,19,0,1,0,0-38H329.75a19,19,0,1,0,0,38Z" transform="translate(-100 -24.89)"/><path class="cls-2" d="M240.51,238.61a19,19,0,0,0,19,19h281a19,19,0,1,0,0-38h-281A19,19,0,0,0,240.51,238.61Z" transform="translate(-100 -24.89)"/><path class="cls-2" d="M259.5,339.38h281a19,19,0,1,0,0-38h-281a19,19,0,1,0,0,38Z" transform="translate(-100 -24.89)"/></svg>