<?xml version="1.0" encoding="UTF-8"?>
<!DOCTYPE svg PUBLIC "-//W3C//DTD SVG 1.1//EN" "http://www.w3.org/Graphics/SVG/1.1/DTD/svg11.dtd">
<!-- Creator: CorelDRAW X8 -->
<svg xmlns="http://www.w3.org/2000/svg" xml:space="preserve" width="8.5in" height="11in" version="1.1" style="shape-rendering:geometricPrecision; text-rendering:geometricPrecision; image-rendering:optimizeQuality; fill-rule:evenodd; clip-rule:evenodd"
viewBox="0 0 8500 11000"
 xmlns:xlink="http://www.w3.org/1999/xlink">
 <defs>
  <style type="text/css">
   <![CDATA[
    .fil1 {fill:#839AAA;fill-rule:nonzero}
    .fil0 {fill:#F62F3D;fill-rule:nonzero}
   ]]>
  </style>
 </defs>
 <g id="__x0023_Layer_x0020_1">
  <metadata id="CorelCorpID_0Corel-Layer"/>
  <g id="_261248696">
   <g>
    <path class="fil0" d="M5531 8269l-567 -2939c-14,-76 -88,-125 -164,-111 -75,15 -125,89 -111,164l554 2872 -993 1142 -412 -474c-51,-58 -139,-64 -197,-14 -59,51 -65,140 -14,198l517 595c27,30 65,48 106,48 41,0 79,-18 106,-48l1143 -1315c28,-32 40,-76 32,-118z"/>
   </g>
  </g>
  <g id="_261247880">
   <g>
    <path class="fil1" d="M6356 1282c-48,-39 -114,-43 -166,-10l-1940 1251 -1940 -1251c-52,-33 -119,-29 -166,10 -47,39 -63,104 -40,161l920 2274c17,42 53,73 97,83 11,3 22,4 32,4 34,0 67,-12 93,-35l254 -225 210 882 -741 3843c-8,42 4,86 32,118l327 376c27,32 66,48 105,48 33,0 66,-11 92,-34 59,-51 65,-139 14,-198l-282 -324 711 -3692 563 0 69 356c13,67 72,114 137,114 9,0 18,-1 27,-3 76,-14 126,-88 111,-164l-85 -440 210 -882 254 225c26,23 59,35 93,35 10,0 21,-1 32,-4 44,-10 80,-41 97,-83l920 -2274c23,-57 7,-122 -40,-161zm-3147 2146l0 0 -680 -1681 1490 961 -810 720zm1327 855l0 0 -572 0 -227 -950 513 -456 512 456 -226 950zm755 -855l0 0 -810 -720 1490 -961 -680 1681z"/>
   </g>
  </g>
 </g>
</svg>
