<svg id="Capa_1" data-name="Capa 1" xmlns="http://www.w3.org/2000/svg" viewBox="0 0 612 497.12"><defs><style>.cls-1{fill:#9fa9b1;}</style></defs><title>twitter_icon</title><path class="cls-1" d="M612,206.26A250.68,250.68,0,0,1,539.91,226a126.08,126.08,0,0,0,55.19-69.41,253.14,253.14,0,0,1-79.78,30.48A125.64,125.64,0,0,0,301.39,301.56,356.43,356.43,0,0,1,42.64,170.39,125.69,125.69,0,0,0,81.5,338a125.55,125.55,0,0,1-56.87-15.76v1.57a125.67,125.67,0,0,0,100.69,123.1,127.14,127.14,0,0,1-33.08,4.4A120.39,120.39,0,0,1,68.61,449a125.6,125.6,0,0,0,117.25,87.19A251.93,251.93,0,0,1,29.94,589.8,269,269,0,0,1,0,588.08a354.9,354.9,0,0,0,192.44,56.48c231,0,357.19-191.29,357.19-357.19l-.42-16.25A250.81,250.81,0,0,0,612,206.26Z" transform="translate(0 -147.44)" fill="#9fa9b1"/></svg>